<?xml version="1.0" encoding="UTF-8" standalone="no"?>
<!-- Created with Inkscape (http://www.inkscape.org/) -->

<svg
   width="51.491302mm"
   height="56.860905mm"
   viewBox="0 0 51.491302 56.860905"
   version="1.1"
   id="svg5"
   xmlns="http://www.w3.org/2000/svg"
   xmlns:svg="http://www.w3.org/2000/svg">
  <defs
     id="defs2" />
  <g
     id="layer1"
     transform="translate(-123.16359,-56.36143)">
    <path
       style="fill:#552200;stroke:#2b1100;stroke-width:1.37836;stroke-linecap:round;stroke-linejoin:miter;stroke-dasharray:none;stroke-opacity:1"
       id="path5076"
       d="m 175.13284,99.282147 c -3.26782,5.847673 -25.43342,16.090803 -32.0047,14.789953 -6.57127,-1.30085 -23.16262,-19.216294 -23.95607,-25.867932 -0.79346,-6.651638 11.11813,-27.96712 17.19903,-30.77721 6.08089,-2.810091 30.034,1.931661 34.58565,6.846568 4.55166,4.914906 7.4439,29.160952 4.17609,35.008621 z"
       transform="matrix(-0.4352985,-0.75395911,0.75395911,-0.4352985,150.00233,232.22224)" />
    <circle
       style="fill:#d45500;stroke:#803300;stroke-width:1.2;stroke-dasharray:none"
       id="ellipse4994"
       cy="86.624649"
       cx="148.90924"
       r="15.522304" />
    <path
       style="fill:#d45500;stroke:#552200;stroke-width:1.2;stroke-linecap:round;stroke-linejoin:miter;stroke-dasharray:none;stroke-opacity:1"
       d="m 156.39153,93.463325 c 0,0 3.81428,8.842695 0,11.325365 -3.81431,2.48267 -11.12415,2.50023 -14.96544,0 -3.84126,-2.50023 0,-11.474384 0,-11.474384"
       id="path4996" />
    <path
       id="path5831"
       style="fill:#ff6600;stroke:#552200;stroke-width:1.2;stroke-linecap:round;stroke-linejoin:miter;stroke-dasharray:none;stroke-opacity:1"
       d="m 149.39295,96.534159 c -3.51352,-0.0023 -7.03034,0.645586 -9.47177,1.949752 -0.4102,2.457889 -0.32379,5.114309 1.50481,6.304529 3.84129,2.50022 11.15119,2.48266 14.9655,0 1.96037,-1.27599 1.90433,-4.23065 1.38803,-6.80269 -2.33062,-0.963986 -5.3569,-1.449601 -8.38657,-1.451591 z" />
    <path
       style="fill:#ffffff;stroke:#552200;stroke-width:1.24785;stroke-linecap:round;stroke-linejoin:miter;stroke-dasharray:none;stroke-opacity:1"
       id="path5000"
       d="m 144.89374,45.405441 -1.76526,-3.057524 -1.76527,-3.057523 3.53053,0 3.53052,0 -1.76526,3.057523 z"
       transform="matrix(0.78335694,0,0,1.1805386,30.946345,58.146324)" />
    <path
       style="fill:#ff6600;stroke:#552200;stroke-width:1.2;stroke-linecap:round;stroke-linejoin:round;stroke-dasharray:none;stroke-opacity:1"
       d="m 142.33274,104.11614 c 0,0 2.23951,0.0923 4.29553,0.0342 2.05602,-0.0582 2.2299,-2.63712 2.2299,-2.63712"
       id="path5002" />
    <circle
       style="fill:#ffffff;stroke:#552200;stroke-width:1.2;stroke-dasharray:none"
       id="circle5004"
       cx="156.81337"
       cy="86.884857"
       r="4.546895" />
    <circle
       style="fill:#552200;stroke:#552200;stroke-width:1.2;stroke-dasharray:none"
       id="circle5006"
       cx="155.77176"
       cy="87.353775"
       r="3.5052893" />
    <circle
       style="fill:#ffffff;stroke:#552200;stroke-width:1.2;stroke-dasharray:none"
       id="circle5008"
       cx="-140.29781"
       cy="86.884857"
       r="4.546895"
       transform="scale(-1,1)" />
    <circle
       style="fill:#552200;stroke:#552200;stroke-width:1.2;stroke-dasharray:none"
       id="circle5010"
       cx="-141.33942"
       cy="87.353775"
       r="3.5052893"
       transform="scale(-1,1)" />
    <path
       style="fill:#ffffff;stroke:#552200;stroke-width:1.24785;stroke-linecap:round;stroke-linejoin:miter;stroke-dasharray:none;stroke-opacity:1"
       id="path5020"
       d="m 144.89374,45.405441 -1.76526,-3.057524 -1.76527,-3.057523 3.53053,0 3.53052,0 -1.76526,3.057523 z"
       transform="matrix(-0.78335694,0,0,1.1805386,267.43184,58.146324)" />
    <path
       style="fill:#ff6600;stroke:#552200;stroke-width:1.2;stroke-linecap:round;stroke-linejoin:round;stroke-dasharray:none;stroke-opacity:1"
       d="m 155.42541,104.11614 c 0,0 -2.23951,0.0923 -4.29553,0.0342 -2.05602,-0.0582 -2.2299,-2.63712 -2.2299,-2.63712"
       id="path5022" />
    <path
       id="path4998"
       style="fill:#ff5555;stroke:#552200;stroke-width:1.2;stroke-dasharray:none"
       d="m 148.90282,100.60117 c -0.52507,0 -5.51315,-3.445248 -5.25062,-3.899965 0.26253,-0.454719 10.23871,-0.454719 10.50124,-2e-6 0.26253,0.454717 -4.72555,3.899967 -5.25062,3.899967 z" />
    <path
       style="fill:#d45500;fill-opacity:1;stroke:#803300;stroke-width:1.69136;stroke-linecap:round;stroke-dasharray:none"
       id="path5012"
       d="m 17.880536,26.258752 c -2.55602,-0.684884 -5.475787,-11.581601 -3.604651,-13.452738 1.871137,-1.871137 12.767855,1.04863 13.452738,3.60465 0.684884,2.55602 -7.292067,10.532971 -9.848087,9.848088 z"
       transform="matrix(-0.70650759,-0.0649712,-0.0649712,0.70650759,180.38779,62.446971)" />
    <path
       style="fill:#ff5555;stroke:#803300;stroke-width:3.03672;stroke-linecap:round;stroke-dasharray:none"
       id="path5014"
       d="m 17.880536,26.258752 c -2.55602,-0.684884 -5.475787,-11.581601 -3.604651,-13.452738 1.871137,-1.871137 12.767855,1.04863 13.452738,3.60465 0.684884,2.55602 -7.292067,10.532971 -9.848087,9.848088 z"
       transform="matrix(-0.39350319,-0.03618698,-0.03618698,0.39350319,173.28713,67.839944)" />
    <path
       style="fill:#d45500;fill-opacity:1;stroke:#803300;stroke-width:1.69136;stroke-linecap:round;stroke-dasharray:none"
       id="path6123"
       d="m 17.880536,26.258752 c -2.55602,-0.684884 -5.475787,-11.581601 -3.604651,-13.452738 1.871137,-1.871137 12.767855,1.04863 13.452738,3.60465 0.684884,2.55602 -7.292067,10.532971 -9.848087,9.848088 z"
       transform="matrix(0.70650759,-0.0649712,0.0649712,0.70650759,117.42052,62.446971)" />
    <path
       style="fill:#ff5555;stroke:#803300;stroke-width:3.03672;stroke-linecap:round;stroke-dasharray:none"
       id="path6125"
       d="m 17.880536,26.258752 c -2.55602,-0.684884 -5.475787,-11.581601 -3.604651,-13.452738 1.871137,-1.871137 12.767855,1.04863 13.452738,3.60465 0.684884,2.55602 -7.292067,10.532971 -9.848087,9.848088 z"
       transform="matrix(0.39350319,-0.03618698,0.03618698,0.39350319,124.52118,67.839944)" />
  </g>
</svg>
