<?xml version="1.0" encoding="UTF-8" standalone="no"?>
<!-- Created with Inkscape (http://www.inkscape.org/) -->

<svg
   width="39.759186mm"
   height="45.812057mm"
   viewBox="0 0 39.759186 45.812057"
   version="1.1"
   id="svg5"
   xmlns="http://www.w3.org/2000/svg"
   xmlns:svg="http://www.w3.org/2000/svg">
  <defs
     id="defs2" />
  <g
     id="layer1"
     transform="translate(-71.229334,-65.280768)">
    <ellipse
       style="fill:#ff6600;stroke:#803300;stroke-width:1.2;stroke-dasharray:none"
       id="ellipse4068"
       cx="91.208832"
       cy="86.624649"
       rx="18.482836"
       ry="15.662035" />
    <path
       style="fill:#ff6600;stroke:#803300;stroke-width:1.1169;stroke-linecap:round;stroke-linejoin:miter;stroke-dasharray:none;stroke-opacity:1"
       d="m 104.83148,92.944975 c 0,0 0.75621,9.378835 -4.09664,12.012025 -4.852894,2.63321 -14.153095,2.65182 -19.04031,0 -4.887177,-2.65182 -4.005513,-12.170079 -4.005513,-12.170079"
       id="path4070" />
    <path
       id="path4988"
       style="fill:#ff7f2a;stroke:#aa4400;stroke-width:1.1169;stroke-linecap:round;stroke-linejoin:miter;stroke-dasharray:none;stroke-opacity:1"
       d="m 84.492056,92.826842 a 13.49681,7.7290728 0 0 0 -6.584024,5.360082 c 0.421299,2.629866 1.435286,5.494166 3.786514,6.769946 4.88721,2.65182 14.187493,2.63321 19.040384,0 2.30401,-1.25017 3.34241,-4.02045 3.79895,-6.58607 a 13.49681,7.7290728 0 0 0 -6.392753,-5.464517 z" />
    <path
       id="path4072"
       style="fill:#ff5555;stroke:#803300;stroke-width:1.2;stroke-dasharray:none"
       d="m 91.202409,98.791968 c -0.433941,0 -4.556382,-2.847355 -4.339412,-3.223159 0.216971,-0.375805 8.461852,-0.375805 8.678822,-10e-7 0.21697,0.375804 -3.90547,3.22316 -4.33941,3.22316 z" />
    <path
       style="fill:#ffffff;stroke:#803300;stroke-width:1.30908;stroke-linecap:round;stroke-linejoin:miter;stroke-dasharray:none;stroke-opacity:1"
       id="path4074"
       d="m 144.89374,45.405441 -1.76526,-3.057524 -1.76527,-3.057523 3.53053,0 3.53052,0 -1.76526,3.057523 z"
       transform="matrix(0.74671759,0,0,1.1253222,-21.539033,58.523936)" />
    <path
       style="fill:#ff7f2a;stroke:#803300;stroke-width:1.2;stroke-linecap:round;stroke-linejoin:round;stroke-dasharray:none;stroke-opacity:1"
       d="m 83.129914,102.55085 c 0,0 2.751632,0.11341 5.277814,0.042 2.526182,-0.0715 2.739824,-3.24016 2.739824,-3.24016"
       id="path4076" />
    <circle
       style="fill:#ffffff;stroke:#552200;stroke-width:1.2;stroke-dasharray:none"
       id="circle4078"
       cx="99.112961"
       cy="86.884857"
       r="4.546895" />
    <circle
       style="fill:#552200;stroke:#552200;stroke-width:1.2;stroke-dasharray:none"
       id="circle4080"
       cx="98.07135"
       cy="87.353775"
       r="3.5052893" />
    <circle
       style="fill:#ffffff;stroke:#552200;stroke-width:1.2;stroke-dasharray:none"
       id="circle4082"
       cx="-82.597397"
       cy="86.884857"
       r="4.546895"
       transform="scale(-1,1)" />
    <circle
       style="fill:#552200;stroke:#552200;stroke-width:1.2;stroke-dasharray:none"
       id="circle4084"
       cx="-83.639008"
       cy="87.353775"
       r="3.5052893"
       transform="scale(-1,1)" />
    <path
       style="fill:#ff6600;stroke:#803300;stroke-width:1.19664;stroke-linecap:round;stroke-dasharray:none"
       id="path4086"
       d="m 17.880536,26.258752 c -2.55602,-0.684884 -5.475787,-11.581601 -3.604651,-13.452738 1.871137,-1.871137 12.767855,1.04863 13.452738,3.60465 0.684884,2.55602 -7.292067,10.532971 -9.848087,9.848088 z"
       transform="matrix(-0.98833869,0.16975299,0.16975299,0.98833869,121.14033,51.121882)" />
    <path
       style="fill:#d35f5f;stroke:#803300;stroke-width:2.14848;stroke-linecap:round;stroke-dasharray:none"
       id="path4088"
       d="m 17.880536,26.258752 c -2.55602,-0.684884 -5.475787,-11.581601 -3.604651,-13.452738 1.871137,-1.871137 12.767855,1.04863 13.452738,3.60465 0.684884,2.55602 -7.292067,10.532971 -9.848087,9.848088 z"
       transform="matrix(-0.55047452,0.09454724,0.09454724,0.55047452,113.41891,61.082303)" />
    <path
       style="fill:#ff6600;stroke:#803300;stroke-width:1.19664;stroke-linecap:round;stroke-dasharray:none"
       id="path4090"
       d="m 17.880536,26.258752 c -2.55602,-0.684884 -5.475787,-11.581601 -3.604651,-13.452738 1.871137,-1.871137 12.767855,1.04863 13.452738,3.60465 0.684884,2.55602 -7.292067,10.532971 -9.848087,9.848088 z"
       transform="matrix(0.98833869,0.16975299,-0.16975299,0.98833869,61.077522,51.121882)" />
    <path
       style="fill:#d35f5f;stroke:#803300;stroke-width:2.14848;stroke-linecap:round;stroke-dasharray:none"
       id="path4092"
       d="m 17.880536,26.258752 c -2.55602,-0.684884 -5.475787,-11.581601 -3.604651,-13.452738 1.871137,-1.871137 12.767855,1.04863 13.452738,3.60465 0.684884,2.55602 -7.292067,10.532971 -9.848087,9.848088 z"
       transform="matrix(0.55047452,0.09454724,-0.09454724,0.55047452,68.798945,61.082303)" />
    <path
       style="fill:#ffffff;stroke:#803300;stroke-width:1.30908;stroke-linecap:round;stroke-linejoin:miter;stroke-dasharray:none;stroke-opacity:1"
       id="path4094"
       d="m 144.89374,45.405441 -1.76526,-3.057524 -1.76527,-3.057523 3.53053,0 3.53052,0 -1.76526,3.057523 z"
       transform="matrix(-0.74671759,0,0,1.1253222,203.88552,58.523936)" />
    <path
       style="fill:#ff7f2a;stroke:#803300;stroke-width:1.2;stroke-linecap:round;stroke-linejoin:round;stroke-dasharray:none;stroke-opacity:1"
       d="m 99.216563,102.55085 c 0,0 -2.751632,0.11341 -5.277814,0.042 -2.526182,-0.0715 -2.739825,-3.24016 -2.739825,-3.24016"
       id="path4096" />
    <path
       style="fill:#803300;stroke:#803300;stroke-width:1.2;stroke-linecap:round;stroke-linejoin:miter;stroke-dasharray:none;stroke-opacity:1"
       id="path4928"
       d="m 91.392868,76.276931 c -1.540654,0 -4.82468,-5.6881 -4.054353,-7.022345 0.770327,-1.334246 7.338379,-1.334246 8.108706,-10e-7 0.770327,1.334246 -2.513699,7.022346 -4.054353,7.022346 z"
       transform="translate(0,2.8251258)" />
    <path
       style="fill:#803300;stroke:#803300;stroke-width:2.77133;stroke-linecap:round;stroke-linejoin:miter;stroke-dasharray:none;stroke-opacity:1"
       id="path4930"
       d="m 91.392868,76.276931 c -1.540654,0 -4.82468,-5.6881 -4.054353,-7.022345 0.770327,-1.334246 7.338379,-1.334246 8.108706,-10e-7 0.770327,1.334246 -2.513699,7.022346 -4.054353,7.022346 z"
       transform="matrix(0.23868397,0.25773057,-0.16326292,0.37679194,63.627313,35.562219)" />
    <path
       style="fill:#803300;stroke:#803300;stroke-width:2.77133;stroke-linecap:round;stroke-linejoin:miter;stroke-dasharray:none;stroke-opacity:1"
       id="path4932"
       d="m 91.392868,76.276931 c -1.540654,0 -4.82468,-5.6881 -4.054353,-7.022345 0.770327,-1.334246 7.338379,-1.334246 8.108706,-10e-7 0.770327,1.334246 -2.513699,7.022346 -4.054353,7.022346 z"
       transform="matrix(-0.23471223,0.25824079,0.1605462,0.37753788,118.66471,35.462305)" />
  </g>
</svg>
