<?xml version="1.0" encoding="UTF-8" standalone="no"?>
<!-- Created with Inkscape (http://www.inkscape.org/) -->

<svg
   width="44.735847mm"
   height="46.625717mm"
   viewBox="0 0 44.735847 46.625717"
   version="1.1"
   id="svg5"
   xmlns="http://www.w3.org/2000/svg"
   xmlns:svg="http://www.w3.org/2000/svg">
  <defs
     id="defs2" />
  <g
     id="layer1"
     transform="translate(-125.03196,-6.9673212)">
    <ellipse
       style="fill:#6f918a;stroke:#374845;stroke-width:1.2;stroke-dasharray:none"
       id="circle2022"
       cx="147.59341"
       cy="28.335567"
       rx="18.482836"
       ry="15.662035" />
    <path
       style="fill:#6f918a;stroke:#374845;stroke-width:1.2;stroke-linecap:round;stroke-linejoin:miter;stroke-dasharray:none;stroke-opacity:1"
       d="m 155.0757,36.752958 c 0,0 3.81428,8.842693 0,11.32536 -3.81431,2.482667 -11.12415,2.50023 -14.96544,0 -3.84126,-2.500229 0,-11.474379 0,-11.474379"
       id="path3132" />
    <path
       style="fill:#ffffff;stroke:#374845;stroke-width:1.89176;stroke-linecap:round;stroke-linejoin:miter;stroke-dasharray:none;stroke-opacity:1"
       id="path2106"
       d="m 144.89374,45.405441 -1.76526,-3.057524 -1.76527,-3.057523 3.53053,0 3.53052,0 -1.76526,3.057523 z"
       transform="matrix(0.6522866,0,0,0.616869,49.450577,24.416866)" />
    <path
       style="fill:#6f918a;stroke:#374845;stroke-width:1.2;stroke-linecap:round;stroke-linejoin:round;stroke-dasharray:none;stroke-opacity:1"
       d="m 141.01691,48.557123 c 0,0 2.23951,0.09235 4.29553,0.03417 2.05602,-0.05817 2.2299,-2.637111 2.2299,-2.637111"
       id="path2026" />
    <circle
       style="fill:#ffffff;stroke:#374845;stroke-width:1.2;stroke-dasharray:none"
       id="circle2030"
       cx="155.49754"
       cy="28.595776"
       r="4.546895" />
    <circle
       style="fill:#374845;stroke:#374845;stroke-width:1.2;stroke-dasharray:none"
       id="circle2032"
       cx="154.45593"
       cy="29.064692"
       r="3.5052893" />
    <circle
       style="fill:#ffffff;stroke:#374845;stroke-width:1.2;stroke-dasharray:none"
       id="circle2036"
       cx="-138.98198"
       cy="28.595776"
       r="4.546895"
       transform="scale(-1,1)" />
    <circle
       style="fill:#374845;stroke:#374845;stroke-width:1.2;stroke-dasharray:none"
       id="circle2038"
       cx="-140.02359"
       cy="29.064692"
       r="3.5052893"
       transform="scale(-1,1)" />
    <path
       style="fill:#374845;stroke:#374845;stroke-width:1.93107;stroke-dasharray:none"
       id="path2046"
       d="m 34.390507,40.316066 c -0.371399,0 -2.224739,-2.503866 -2.410439,-2.825507 -0.185699,-0.32164 -1.42744,-3.178613 -1.241741,-3.500253 0.1857,-0.321641 3.280781,-0.674748 3.65218,-0.674748 0.371398,0 3.46648,0.353107 3.652179,0.674747 0.185699,0.321641 -1.056042,3.178614 -1.241741,3.500255 -0.185699,0.32164 -2.039039,2.825506 -2.410438,2.825506 z"
       transform="matrix(0.67506295,0,0,0.57203665,124.37766,22.33523)" />
    <path
       style="fill:#ffffff;stroke:#374845;stroke-width:1.89176;stroke-linecap:round;stroke-linejoin:miter;stroke-dasharray:none;stroke-opacity:1"
       id="path2382"
       d="m 144.89374,45.405441 -1.76526,-3.057524 -1.76527,-3.057523 3.53053,0 3.53052,0 -1.76526,3.057523 z"
       transform="matrix(-0.6522866,0,0,0.616869,245.64106,24.416866)" />
    <path
       style="fill:#6f918a;stroke:#374845;stroke-width:1.2;stroke-linecap:round;stroke-linejoin:round;stroke-dasharray:none;stroke-opacity:1"
       d="m 154.07473,48.557123 c 0,0 -2.23952,0.09235 -4.29553,0.03417 -2.05602,-0.05817 -2.22991,-2.637111 -2.22991,-2.637111"
       id="path2384" />
    <g
       id="g2388"
       style="stroke-width:1.2;stroke-dasharray:none">
      <path
         style="fill:#6f918a;stroke:#374845;stroke-width:0.721306;stroke-linecap:round;stroke-linejoin:miter;stroke-dasharray:none;stroke-opacity:1"
         id="path2376"
         d="m 131.2126,8.880097 c 0.8583,-0.7805276 9.79959,2.07589 10.0464,3.209458 0.24681,1.133568 -6.69757,7.448746 -7.80267,7.095705 -1.1051,-0.35304 -3.10202,-9.5246354 -2.24373,-10.305163 z"
         transform="matrix(1.6635135,0.02124578,-0.02124578,1.6635135,-92.083034,-9.778872)" />
      <path
         style="fill:#ff5555;stroke:#374845;stroke-width:1.06917;stroke-linecap:round;stroke-linejoin:miter;stroke-dasharray:none;stroke-opacity:1"
         id="path2380"
         d="m 131.2126,8.880097 c 0.8583,-0.7805276 9.79959,2.07589 10.0464,3.209458 0.24681,1.133568 -6.69757,7.448746 -7.80267,7.095705 -1.1051,-0.35304 -3.10202,-9.5246354 -2.24373,-10.305163 z"
         transform="matrix(1.1222776,0.01433332,-0.01433332,1.1222776,-18.912978,-1.662337)" />
    </g>
    <g
       id="g2394"
       transform="matrix(-1,0,0,1,294.79976,0)"
       style="stroke-width:1.2;stroke-dasharray:none">
      <path
         style="fill:#6f918a;stroke:#374845;stroke-width:0.721306;stroke-linecap:round;stroke-linejoin:miter;stroke-dasharray:none;stroke-opacity:1"
         id="path2390"
         d="m 131.2126,8.880097 c 0.8583,-0.7805276 9.79959,2.07589 10.0464,3.209458 0.24681,1.133568 -6.69757,7.448746 -7.80267,7.095705 -1.1051,-0.35304 -3.10202,-9.5246354 -2.24373,-10.305163 z"
         transform="matrix(1.6635135,0.02124578,-0.02124578,1.6635135,-92.083034,-9.778872)" />
      <path
         style="fill:#ff5555;stroke:#374845;stroke-width:1.06917;stroke-linecap:round;stroke-linejoin:miter;stroke-dasharray:none;stroke-opacity:1"
         id="path2392"
         d="m 131.2126,8.880097 c 0.8583,-0.7805276 9.79959,2.07589 10.0464,3.209458 0.24681,1.133568 -6.69757,7.448746 -7.80267,7.095705 -1.1051,-0.35304 -3.10202,-9.5246354 -2.24373,-10.305163 z"
         transform="matrix(1.1222776,0.01433332,-0.01433332,1.1222776,-18.912978,-1.662337)" />
    </g>
  </g>
</svg>
