<?xml version="1.0" encoding="UTF-8" standalone="no"?>
<!-- Created with Inkscape (http://www.inkscape.org/) -->

<svg
   width="77.960739mm"
   height="58.331955mm"
   viewBox="0 0 77.960739 58.331955"
   version="1.1"
   id="svg5"
   xmlns="http://www.w3.org/2000/svg"
   xmlns:svg="http://www.w3.org/2000/svg">
  <defs
     id="defs2" />
  <g
     id="layer1"
     transform="translate(-0.84189268,-113.06645)">
    <path
       style="fill:#918a6f;fill-opacity:1;stroke:#484537;stroke-width:1.35021;stroke-linecap:round;stroke-linejoin:miter;stroke-dasharray:none;stroke-opacity:1"
       id="path6227"
       d="M 17.044387,152.17697 C 13.497301,151.22654 5.0734223,140.82391 4.8812334,137.15673 4.6890445,133.48955 11.979406,122.26338 15.407713,120.94737 c 3.428307,-1.316 16.357877,2.14847 18.668876,5.00231 2.310999,2.85385 3.011551,16.22118 1.01152,19.30096 -2.000031,3.07978 -14.496635,7.87677 -18.043722,6.92633 z"
       transform="matrix(-1.082499,0,0,1.082499,40.826176,-16.807042)" />
    <path
       style="fill:#de8787;fill-opacity:1;stroke:#484537;stroke-width:1.8124;stroke-linecap:round;stroke-linejoin:miter;stroke-dasharray:none;stroke-opacity:1"
       id="path7101"
       d="M 17.044387,152.17697 C 13.497301,151.22654 5.0734223,140.82391 4.8812334,137.15673 4.6890445,133.48955 11.979406,122.26338 15.407713,120.94737 c 3.428307,-1.316 16.357877,2.14847 18.668876,5.00231 2.310999,2.85385 3.011551,16.22118 1.01152,19.30096 -2.000031,3.07978 -14.496635,7.87677 -18.043722,6.92633 z"
       transform="matrix(-0.80644444,0,0,0.80644444,34.946321,20.818175)" />
    <path
       style="fill:#918a6f;fill-opacity:1;stroke:#484537;stroke-width:1.35021;stroke-linecap:round;stroke-linejoin:miter;stroke-dasharray:none;stroke-opacity:1"
       id="path6217"
       d="M 17.044387,152.17697 C 13.497301,151.22654 5.0734223,140.82391 4.8812334,137.15673 4.6890445,133.48955 11.979406,122.26338 15.407713,120.94737 c 3.428307,-1.316 16.357877,2.14847 18.668876,5.00231 2.310999,2.85385 3.011551,16.22118 1.01152,19.30096 -2.000031,3.07978 -14.496635,7.87677 -18.043722,6.92633 z"
       transform="matrix(1.082499,0,0,1.082499,38.818346,-16.807042)" />
    <path
       style="fill:#de8787;fill-opacity:1;stroke:#484537;stroke-width:1.82744;stroke-linecap:round;stroke-linejoin:miter;stroke-dasharray:none;stroke-opacity:1"
       id="path7099"
       d="M 17.044387,152.17697 C 13.497301,151.22654 5.0734223,140.82391 4.8812334,137.15673 4.6890445,133.48955 11.979406,122.26338 15.407713,120.94737 c 3.428307,-1.316 16.357877,2.14847 18.668876,5.00231 2.310999,2.85385 3.011551,16.22118 1.01152,19.30096 -2.000031,3.07978 -14.496635,7.87677 -18.043722,6.92633 z"
       transform="matrix(0.79980629,0,0,0.79980629,44.83959,21.722929)" />
    <ellipse
       style="fill:#918a6f;stroke:#484537;stroke-width:1.4616;stroke-dasharray:none"
       id="ellipse6131"
       cx="39.265087"
       cy="143.23021"
       rx="22.512121"
       ry="19.076382" />
    <circle
       style="fill:#ffffff;stroke:#484537;stroke-width:1.4616;stroke-dasharray:none"
       id="circle6139"
       cx="48.892326"
       cy="143.54713"
       r="5.538125" />
    <circle
       style="fill:#484537;stroke:#484537;stroke-width:1.4616;stroke-dasharray:none"
       id="circle6141"
       cx="47.623642"
       cy="144.11829"
       r="4.2694478" />
    <circle
       style="fill:#ffffff;stroke:#484537;stroke-width:1.4616;stroke-dasharray:none"
       id="circle6143"
       cx="-28.776348"
       cy="143.54713"
       r="5.538125"
       transform="scale(-1,1)" />
    <circle
       style="fill:#484537;stroke:#484537;stroke-width:1.4616;stroke-dasharray:none"
       id="circle6145"
       cx="-30.045031"
       cy="144.11829"
       r="4.2694478"
       transform="scale(-1,1)" />
    <g
       id="path6225"
       style="fill:#918a6f;fill-opacity:1;stroke:#484537;stroke-width:1.35021;stroke-linecap:round;stroke-linejoin:round;stroke-dasharray:none"
       transform="matrix(1.082499,0,0,1.082499,0.61818008,-13.39302)">
      <path
         style="color:#000000;fill:#918a6f;fill-opacity:1;stroke:#484537;stroke-width:1.35021;stroke-linecap:round;stroke-linejoin:round;stroke-dasharray:none"
         d="m 33.427849,157.6222 c 0,0 0.658958,4.68608 -7.599016,8.12521 -8.257974,3.43913 -12.83494,-3.357 -12.83494,-3.357"
         id="path6231" />
      <path
         style="color:#000000;fill:#918a6f;fill-opacity:1;stroke:#484537;stroke-width:1.35021;stroke-linecap:round;stroke-linejoin:round;stroke-dasharray:none"
         d="m 32.314453,149.69922 c -4.37592,0.61496 -5.946232,7.8415 -5.946232,7.8415 0,0 -5.378394,1.82447 -9.255311,0.20031 -3.876918,-1.62417 -4.923176,-4.45283 -8.5875194,-1.98517 -4.281815,4.14031 2.3410514,9.87503 5.9109194,12.05095 9.643746,5.34393 25.468227,0.44427 26.891815,-8.31658 0.183697,-1.34673 0.02148,-2.98242 0.02148,-2.98242 -0.614995,-4.37504 -4.660069,-7.42328 -9.035156,-6.80859 z"
         id="path6233" />
    </g>
    <circle
       style="fill:#de8787;fill-opacity:1;stroke:#484537;stroke-width:1.4616;stroke-linecap:round;stroke-linejoin:round;stroke-dasharray:none;stroke-opacity:1"
       id="path7209"
       cx="12.149206"
       cy="158.07382"
       r="3.8662107" />
  </g>
</svg>
